<?xml version="1.0" encoding="UTF-8" standalone="no"?>
<svg
   xmlns:dc="http://purl.org/dc/elements/1.1/"
   xmlns:cc="http://creativecommons.org/ns#"
   xmlns:rdf="http://www.w3.org/1999/02/22-rdf-syntax-ns#"
   xmlns:svg="http://www.w3.org/2000/svg"
   xmlns="http://www.w3.org/2000/svg"
   xmlns:sodipodi="http://sodipodi.sourceforge.net/DTD/sodipodi-0.dtd"
   xmlns:inkscape="http://www.inkscape.org/namespaces/inkscape"
   aria-hidden="true"
   focusable="false"
   data-prefix="fas"
   data-icon="bicycle"
   class="svg-inline--fa fa-bicycle fa-w-20"
   role="img"
   viewBox="0 0 395.85321 395.85321"
   version="1.1"
   id="svg865"
   sodipodi:docname="bicycle-solid.svg"
   inkscape:version="0.92.4 5da689c313, 2019-01-14"
   width="395.85321"
   height="395.85321"
   inkscape:export-filename="/home/hermlon/code/projects/fahrradkette-ng/app/src/main/res/drawable/ic_bike.png"
   inkscape:export-xdpi="34.922035"
   inkscape:export-ydpi="34.922035">
  <metadata
     id="metadata871">
    <rdf:RDF>
      <cc:Work
         rdf:about="">
        <dc:format>image/svg+xml</dc:format>
        <dc:type
           rdf:resource="http://purl.org/dc/dcmitype/StillImage" />
        <dc:title></dc:title>
      </cc:Work>
    </rdf:RDF>
  </metadata>
  <defs
     id="defs869">
    <filter
       inkscape:collect="always"
       style="color-interpolation-filters:sRGB"
       id="filter5437"
       x="-0.029142857"
       width="1.0582857"
       y="-0.020400001"
       height="1.0408">
      <feGaussianBlur
         inkscape:collect="always"
         stdDeviation="2.9921743"
         id="feGaussianBlur5439" />
    </filter>
  </defs>
  <sodipodi:namedview
     pagecolor="#ffffff"
     bordercolor="#666666"
     borderopacity="1"
     objecttolerance="10"
     gridtolerance="10"
     guidetolerance="10"
     inkscape:pageopacity="0"
     inkscape:pageshadow="2"
     inkscape:window-width="1400"
     inkscape:window-height="1020"
     id="namedview867"
     showgrid="false"
     inkscape:snap-bbox="true"
     showguides="true"
     inkscape:guide-bbox="true"
     inkscape:snap-object-midpoints="true"
     inkscape:bbox-paths="true"
     inkscape:bbox-nodes="true"
     inkscape:snap-bbox-edge-midpoints="true"
     inkscape:snap-bbox-midpoints="true"
     inkscape:snap-center="true"
     inkscape:snap-text-baseline="true"
     inkscape:zoom="0.88277862"
     inkscape:cx="187.0427"
     inkscape:cy="234.11241"
     inkscape:window-x="0"
     inkscape:window-y="30"
     inkscape:window-maximized="1"
     inkscape:current-layer="svg865"
     fit-margin-top="0"
     fit-margin-left="0"
     fit-margin-right="0"
     fit-margin-bottom="0" />
  <g
     id="g5554"
     transform="translate(-126.07339,-22.972149)">
    <path
       inkscape:connector-curvature="0"
       d="m 324,44.888507 c -67.93996,0 -123.20718,55.267223 -123.20718,123.207173 0,92.40539 123.20718,228.81333 123.20718,228.81333 0,0 123.20717,-136.40794 123.20717,-228.81333 C 447.20717,100.15573 391.93995,44.888507 324,44.888507 Z"
       id="path5219"
       style="fill:#3e8392;fill-opacity:1;stroke-width:17.60102463;filter:url(#filter5437)"
       sodipodi:nodetypes="sscss"
       inkscape:export-filename="/home/hermlon/code/projects/fahrradkette-ng/app/src/main/res/drawable/ic_bike.png"
       inkscape:export-xdpi="96"
       inkscape:export-ydpi="96" />
    <path
       inkscape:export-ydpi="96"
       inkscape:export-xdpi="96"
       inkscape:export-filename="/home/hermlon/code/projects/fahrradkette-ng/app/src/main/res/drawable/ic_bike.png"
       sodipodi:nodetypes="sscss"
       style="fill:#0dc5eb;fill-opacity:1;stroke-width:17.60102463"
       id="path4648"
       d="m 320,40.888507 c -67.93996,0 -123.20718,55.26722 -123.20718,123.207173 0,92.40539 123.20718,228.81333 123.20718,228.81333 0,0 123.20717,-136.40794 123.20717,-228.81333 C 443.20717,96.155727 387.93995,40.888507 320,40.888507 Z"
       inkscape:connector-curvature="0" />
    <path
       style="fill:#ffffff;stroke-width:0.24403495"
       inkscape:connector-curvature="0"
       id="path863"
       d="m 366.97894,152.42606 c -3.99558,-0.0156 -7.81643,0.72113 -11.332,2.07308 L 336.6903,123.95743 a 5.8568393,5.8568393 0 0 0 -4.97636,-2.76809 H 316.0957 c -2.15654,0 -3.90456,1.74802 -3.90456,3.90456 v 3.90456 c 0,2.15654 1.74802,3.90456 3.90456,3.90456 h 12.36013 l 3.63514,5.85683 h -27.7087 v -3.90455 c 0,-2.15654 -1.74803,-3.90456 -3.90456,-3.90456 h -21.34306 c -3.28008,0 -6.04645,2.68414 -5.98764,5.96348 0.0566,3.18319 2.65413,5.75019 5.85561,5.75019 h 11.89085 l -7.17877,11.59655 c -3.27812,-1.1787 -6.80955,-1.82611 -10.49155,-1.83515 -17.13736,-0.0415 -31.21379,13.91293 -31.31384,31.05003 -0.10127,17.33698 13.92293,31.42292 31.23648,31.42292 14.55473,0 26.78479,-9.95491 30.25229,-23.42735 h 12.69786 a 5.8568393,5.8568393 0 0 0 4.97978,-2.77395 l 20.97773,-33.88742 3.6454,5.87318 c -6.21191,5.72214 -10.09939,13.92977 -10.08036,23.04594 0.0354,16.79766 14.12939,31.00488 30.92631,31.1679 17.23034,0.16716 31.28065,-13.61788 31.54274,-30.74743 0.26503,-17.31208 -13.79432,-31.65622 -31.1086,-31.72357 z m -79.49659,18.0027 c 2.37373,2.56945 4.0688,5.77412 4.79334,9.32897 h -10.56818 z m -14.33656,32.75633 c -10.76487,0 -19.5228,-8.75793 -19.5228,-19.5228 0,-10.76486 8.75793,-19.52279 19.5228,-19.52279 1.43223,0 2.82738,0.15935 4.17276,0.45366 l -11.10482,17.93877 c -2.41131,3.89455 0.39461,8.93948 4.97978,8.93948 h 19.84004 c -3.01871,6.88789 -9.89855,11.71368 -17.88776,11.71368 z m 39.6874,-23.42736 h -8.69349 c -0.96639,-7.74957 -4.77236,-14.61623 -10.34294,-19.52914 l 6.0389,-9.75505 h 31.12592 z m 52.96951,23.39954 c -10.01423,-0.52833 -18.07056,-8.71009 -18.45564,-18.73091 -0.19815,-5.15426 1.61869,-9.8878 4.71841,-13.4861 l 10.84321,17.46949 c 1.13721,1.83222 3.54436,2.39544 5.37658,1.25825 l 3.31741,-2.05893 c 1.83222,-1.13721 2.39569,-3.54437 1.25825,-5.37658 L 362.00916,164.7491 a 19.498638,19.498638 0 0 1 4.84606,-0.60936 c 10.76487,0 19.52279,8.75792 19.52279,19.5228 -2.4e-4,11.11334 -9.33482,20.08798 -20.57531,19.49473 z" />
  </g>
</svg>
